# xmcd CD database file
#
# Track frame offsets:
#	150
#	17125
#	30275
#	43507
#	57125
#	67840
#	82420
#	100565
#	110420
#	129320
#	144120
#	160302
#	177532
#	189825
#	207575
#
# Disc length: 2929 seconds
#
# Revision: 0
# Processed by: cddbd v1.4PL0 Copyright (c) Steve Scherf et al.
# Submitted via: Feurio! 1.65 - http://www.feurio.com
#
DISCID=c00b6f0f
DTITLE=Various Artist - The Big Country CD 1
DYEAR=1900
DGENRE=country
TTITLE0=Johnny Cash - Riders in the Sky
TTITLE1=Tanya Tucker - Delta Dawn
TTITLE2=Charlie Rich - Behind Closed Doors
TTITLE3=Merle Haggard - That's the Way love goes
TTITLE4=Tammy Wynette - Singing my Song
TTITLE5=The Byrds - From a Distance
TTITLE6=Dolly Parton - The River unbroken
TTITLE7=Barbara Mandrell - Do right woman, do right man
TTITLE8=Exile - I can't get close enough
TTITLE9=Dixiana - Waiting for the deal to go down
TTITLE10=Ricochet - What do i know
TTITLE11=Doug Stone - Born in the dark
TTITLE12=Joe Diffie - New way
TTITLE13=Collin Raye - Not that different
TTITLE14=Ken Mellons - Jukebox Junkie
EXTD=
EXTT0=
EXTT1=
EXTT2=
EXTT3=
EXTT4=
EXTT5=
EXTT6=
EXTT7=
EXTT8=
EXTT9=
EXTT10=
EXTT11=
EXTT12=
EXTT13=
EXTT14=
PLAYORDER=
